<svg xmlns="http://www.w3.org/2000/svg" viewBox="0 0 746.41 110"><defs><style>.cls-1{fill:#fff;}</style></defs><title>Asset 3</title><g id="Layer_2" data-name="Layer 2"><g id="Layer_1-2" data-name="Layer 1"><g id="flowblog"><path id="Path_15" data-name="Path 15" class="cls-1" d="M615.48,84.89a11.83,11.83,0,0,1,11.45,1.72,21.44,21.44,0,0,0,13.44,4.08c7.28,0,11.11-2.75,11.11-5.92,0-2.6-2-3.89-6.35-5l-20.16-5c-11.11-2.74-18-9.36-18-19.74,0-14.55,11.67-24.47,30.84-24.47,17.29,0,28.67,8.48,32.57,17.7l-10.67,2.65a13.67,13.67,0,0,1-11.35-1.92,18.41,18.41,0,0,0-10.56-3.17c-7.64,0-10.65,2.42-10.65,5.77,0,2,1.14,3.88,6.48,5.19l18.87,4.85c14.41,3.59,19.89,9.7,19.89,20,0,12.55-10.82,24.07-32.72,24.07-16.43,0-29.81-6.48-34.57-17Z"/><path id="Path_16" data-name="Path 16" class="cls-1" d="M573.74,93.85a32.7,32.7,0,0,1-24.26,10.94c-12.81,0-21.62-7.07-21.62-18.44,0-12.54,8.23-19,28.85-23.62l17.12-3.89V57.39c0-6.18-4.32-10.94-12.13-10.94A14.07,14.07,0,0,0,549.1,53a5.28,5.28,0,0,1-6,2.35l-13.54-4.24C534.6,37.8,546.41,29.6,563.27,29.6,585.1,29.6,596,41,596,57.4V92.82a95.92,95.92,0,0,0,.58,11.11H584.16a10.43,10.43,0,0,1-10.43-10.09Zm-15.84-4c5.48,0,13.53-4,16-9.7V72.33l-14.27,3.32c-7.28,1.72-10,3.88-10,7.91s2.6,6.26,8.22,6.26Z"/><path id="Path_17" data-name="Path 17" class="cls-1" d="M486.72,104.79a27.36,27.36,0,0,1-20.62-9.07l-3.44,8.34h-18V3.05h0a22.64,22.64,0,0,1,22.64,22.64h0V39.45a27.05,27.05,0,0,1,21-9.72c20.47,0,33.29,15.4,33.29,37C521.58,88.8,507.9,104.79,486.72,104.79ZM467.31,56.51V79.15a15.55,15.55,0,0,0,14.85,8.79c10.1,0,17.16-7.07,17.16-20.16,0-12.68-7.07-20.19-17.16-20.19a15.75,15.75,0,0,0-14.89,8.93Z"/><path id="Path_18" data-name="Path 18" class="cls-1" d="M712.68,104.79c-22.19,0-37.62-15.84-37.62-37.75,0-21.32,15.14-37.31,36.75-37.31s34.6,15.4,34.6,36.59v3.54a1.31,1.31,0,0,1-1.3,1.31h-48c1.31,12.68,9.51,17,16.13,17A17.1,17.1,0,0,0,727.12,82a4.89,4.89,0,0,1,5.5-1.74l11.75,4a2,2,0,0,1,1.22,2.51,1,1,0,0,1-.09.21C741.31,95.74,731.27,104.79,712.68,104.79Zm-15-46.24H725.2c-1-7.49-5.75-12.54-13.83-12.54-6.33,0-11.66,3.74-13.68,12.54Z"/><path id="Path_19" data-name="Path 19" class="cls-1" d="M177,47v57.76h0a22.64,22.64,0,0,1-22.64-22.64V47H141.43V44.12a13,13,0,0,1,12.95-13h0V23.4c0-14.55,9.36-23.36,26-23.36a55.66,55.66,0,0,1,14.27,1.31V17.46a68.74,68.74,0,0,0-9-.58c-5.75,0-8.64,2.42-8.64,7.49v6.77h17.59A15.91,15.91,0,0,1,178.75,47Z"/><path id="Path_20" data-name="Path 20" class="cls-1" d="M206.61,3.78h0a22.63,22.63,0,0,1,22.64,22.64v78.37h0a22.64,22.64,0,0,1-22.64-22.64Z"/><path id="Path_21" data-name="Path 21" class="cls-1" d="M241.23,67.33c0-21.17,14.85-37.6,38.18-37.6,26.22,0,37.89,18.44,37.89,37.46,0,20.46-14.82,37.6-38.18,37.6C252.82,104.79,241.23,85.62,241.23,67.33Zm53.75,0c0-13.12-6.64-20-15.71-20s-15.7,6.91-15.7,20.18c0,12.54,6.63,20,15.7,20S294.91,80,294.91,67.33Z"/><path id="Path_22" data-name="Path 22" class="cls-1" d="M339.91,104.78h0L317.3,31.29h0a29.91,29.91,0,0,1,28.94,22.27l4.2,15.91,2,8.51,2.74-8.52,13.39-38.17h0a25.63,25.63,0,0,1,24.34,17.49l7,20.69L402.45,78l2.18-8.52L409.78,51a26.94,26.94,0,0,1,26-19.71h0L419.85,83.9a29.38,29.38,0,0,1-28.15,20.88h0L379.3,69.47l-2.74-8.2L374,69.47l-5.1,14.7A30.59,30.59,0,0,1,339.91,104.78Z"/></g><path class="cls-1" d="M10.89,110H0L2.27,98.74A22.93,22.93,0,0,1,24.75,80.33h10.9L33.37,91.59A22.93,22.93,0,0,1,10.89,110Z"/><path class="cls-1" d="M46.77,70.29H5.5L7.77,59A22.94,22.94,0,0,1,30.26,40.62H71.53L69.26,51.88A22.94,22.94,0,0,1,46.77,70.29Z"/><path class="cls-1" d="M75.36,30.34H11l2.27-11.26A22.94,22.94,0,0,1,35.76.67h64.35L97.84,11.93A22.93,22.93,0,0,1,75.36,30.34Z"/></g></g></svg>