<svg xmlns="http://www.w3.org/2000/svg" viewBox="0 0 1920 608"><title>MyScout_Section_Background</title><path d="M1920,0V608H1489.59009q-.9452,3.21021-1.96009,6.41992.885-3.21019,1.70008-6.41992H1170.04c-21.3501,5.3999-43.16,6.33008-64.07007,0H676.11A754.32767,754.32767,0,0,1,571.12,305.64014c-.1-.83008-.2-1.67041-.29-2.5q-3.03-25.81494-4.26-51.6001-.405-8.52027-.63-17.04-.93-36.6753,1.66-73.0498,1.11008-15.99024,2.91-31.9004l.18-1.52978a776.30037,776.30037,0,0,1,16.37-92.77q.315-1.30518.63-2.60986Q591.68,16.21484,596.38,0h488.26c-2.30993-1.46-4.59-2.9502-6.85-4.4502Q1083.4751-2.365,1088.90991,0H1442.76a.21105.21105,0,0,1,.03-.0498c.17993.00976.36.02978.53.0498Z" fill="#ffe7d1"/><g opacity="0.8"><g opacity="0.8"><path d="M1920,120.2002V608H1489.59009q-.9452,3.21021-1.96009,6.41992.885-3.21019,1.70008-6.41992H1422.21c1.19006-20.7002,2.87012-41.87012,3.49-61.93018,1.18005-38.91992-1.65991-73.66992-19.96-92.81005-.11-.11963-.22-.23-.34-.33985-11.14-11.43994-24.33-14.16015-38.69006-11.5a70.26847,70.26847,0,0,0-7.98,1.97022h-.01c-12.68994,3.86963-26.13989,11.25976-39.77,20.02978-5.3999,3.46-10.81995,7.1499-16.25,10.91992-31.55994,21.9502-62.94995,46.75-87.35986,48.29-5,.32032-9.93018.37989-14.78.23-31.91-.93994-60.82007-11.0498-89.62012-20.31982C1075.54,491.1499,1040.31006,481.02,999.94,490.74023A149.54156,149.54156,0,0,0,979.62,497.21c-1.93.75977-3.87,1.58008-5.83,2.43994-18.58,8.2002-36.26,22.25-53.92,37.6001-34.4,29.87988-68.71,64.68018-109.44,70.75H785.74a90.1459,90.1459,0,0,1-13.87-3.22021C693.62,580.16992,658.39,451.75,631.7,385.98c-16.21-39.93994-30.27-75.3501-40.85-109.62012-12.7-41.10986-20.39-80.56982-20.78-124.23-.07-7.3999.07-14.91015.44-22.58008.02-.5.05-1,.08-1.5a487.80264,487.80264,0,0,1,9.72-73.55957q.795-3.88549,1.61-7.67041,1.18506-5.50488,2.4-10.82959C587.22,23.33008,590.3,11.39014,593.67,0h490.97c-2.30993-1.46-4.59-2.9502-6.85-4.4502Q1083.4751-2.365,1088.90991,0H1442.76a.21105.21105,0,0,1,.03-.0498c.17993.00976.36.02978.53.0498,83.83,7.81006,163.83,33.85986,243.72,60.24023q6.61486,2.19,13.21,4.32959C1774.47,88.81006,1846.31006,109.71973,1920,120.2002Z" fill="#f5836c" opacity="0.8"/><path d="M1920,168.37012V608H1489.59009q-.9452,3.21021-1.96009,6.41992.885-3.21019,1.70008-6.41992h-74.26c.73-12.87988,1.65991-25.79,2.22-38.47021,1.08-24.39991.79-47.96-4.94006-68.84961-12.45-45.41016-26.86-56.83008-44.52991-52.3501C1353.64,451.93018,1337.36,465.77,1318.30005,480.5c-7.71,5.96-15.88013,12.06006-24.55005,17.7002-11.24,7.29-23.32007,13.79-36.34009,18.12988-19.57983,6.52978-38.38989,7.96972-56.84985,6.52978C1170.29,520.52979,1141,510.48,1110.93994,502.54c-23.84-6.29981-48.15991-11.26025-73.83-9.99024q-5.30988.2549-10.71.89014a126.62478,126.62478,0,0,0-38.6,11.25q-5.355,2.47485-10.54,5.35986C928.05,537.24023,888.8,588.68018,839.29,608h-71.7C675.87,565.66992,597.6,356.7998,571.24,256.31982c-2.1-8.00976-3.87-15.32959-5.3-21.81982-.55-2.56006-1.06-4.99023-1.51-7.28027q-1.035-5.25-1.87-10.46973a308.56286,308.56286,0,0,1-1.77-85.8999,347.49056,347.49056,0,0,1,21.13-84.03028q2.205-5.74439,4.6-11.41992.57-1.37988,1.17-2.75976Q594.8,16.06469,603.41,0h481.23a485.76419,485.76419,0,0,0,46.17,25.96973Q1143.61994,32.3,1156.67993,37.4502c35.73,14.1499,72.72009,22.12988,110.43006,26.92968,39.92,5.08985,80.65,6.62989,121.52,8.18994,62.9,2.39991,126.15,4.86036,187.36,20.39991,20.91,5.31006,41.48,10.74023,61.80005,16.13037C1734.25,134.7002,1825.03,159.60986,1920,168.37012Z" fill="#f9b3a5" opacity="0.8"/><path d="M1920,298.21V608H1489.59009q-.9452,3.21021-1.96009,6.41992.885-3.21019,1.70008-6.41992H1399.61c0-1.52-.01-3.03027-.02991-4.50977-.22009-16.61035-1.7301-30.68017-5.82007-40.39013-9.56006-22.68994-20.57007-34.34033-32.89-38.64014-31.11-10.87012-70.63,25.08008-116.55994,48.60986-24.17,12.37012-50.12012,21.3003-77.55005,18.14991-5.16-.58985-10.16992-1.2295-15.05005-1.88965-18.22-2.47022-34.61-5.36035-49.75-8.08008q-5.18994-.91479-10.19995-1.81982c-12.18994-2.16016-23.61-4.11036-34.6001-5.49024-7.17993-.8999-14.17993-1.56006-21.09985-1.87988a2.5558,2.5558,0,0,0-.28-.01026c-5.68-.25976-11.3-.29-16.92-.02978a153.66924,153.66924,0,0,0-42.3,7.81982c-.27.09034-.55.18018-.82.27-.75.26026-1.5.52-2.26.78028-.96.33984-1.92.6997-2.88995,1.06006-15.15,5.65966-31.23,14.05957-49.07,26.0498H692.35c-56.9-80.3999-103.27-209.6499-121.52-304.85986-.15-.75-.29-1.5-.42-2.24024q-1.035-5.47485-1.94-10.79c-2.92-17.16992-5.53-46.6997-5.91-73.35986-.25-17.08008.42-32.97021,2.52-43.68018.8-4.10986,1.63995-7.96972,2.52-11.61962.79-3.27,1.61-6.37012,2.47-9.32032a131.8147,131.8147,0,0,1,10.79-26.9497c13.34-24.42041,32.91-37.81006,63.53-71.0503C654.65,43,666.02,28.98,678.29,13.83008Q683.78,7.03466,689.52,0H925.93c8.55,18.8501,17.89,36.87988,29.79,51.00977q6.615,7.86034,13.59,15.86035c51.28009,58.77978,116.66,121.73,184.73,156.73974,78.77,40.51026,160.02,29.18994,244.21,30.76026,15.67993.29,31.46,1.02978,47.35,2.63965C1615.6,274.2002,1762.17993,303.3999,1920,298.21Z" fill="#fbcbc1" opacity="0.8"/><path d="M1920,500.60986V608H1489.59009q-.9452,3.21021-1.96009,6.41992.885-3.21019,1.70008-6.41992h-288.52q-7.27515-2.5503-14.63013-4.91992c-8.02991-2.56006-16.1499-4.8999-24.3999-6.8999-10.02-2.42041-19.58008-4.81006-28.76-7.08008-10.24-2.53028-20.01-4.91992-29.42-7.06006q-6.01483-1.37988-11.84-2.60986c-12.1001-2.54-23.65-4.58008-34.89-5.88038-7.03992-.80957-13.95008-1.33007-20.80994-1.48974a2.5558,2.5558,0,0,0-.28-.01026c-5.62012-.13964-11.19995-.04-16.78.34034a168.62686,168.62686,0,0,0-42.34,8.31006q-.375.11939-.75.23974c-.78.27-1.56994.54-2.36.81983-.96.33007-1.92.68017-2.89,1.04-15.42,5.69043-31.49,13.89014-48.84,25.2002H685.5c-53.71-87.72021-98.21-197.2998-114.38-302.35986-.25-1.58008-.48-3.16016-.71-4.74024-2.49-17.06006-4.23-33.98974-5.12-50.66992.43.43994.85.87012,1.28,1.31006q2.325,2.40015,4.67,4.77978,9.78,10.03492,19.61,20.04,18.48,18.84009,36.99,37.66016C674.79,266.08008,692.09,122.71,757.17,86.00977a65.98714,65.98714,0,0,1,20.1-7.43995,48.53687,48.53687,0,0,1,23.74,1c50.38,15.46,66.93,116.3003,103.3,160.22022,38.38,46.35986,86.27,97.87012,138.00006,136.60986A396.71783,396.71783,0,0,0,1096.25,410.83008a212.057,212.057,0,0,0,22.25,10.02978c59.83008,22.97022,121.01,16.02,183.76,17.71q6.09009.15015,12.18994.44a394.20276,394.20276,0,0,1,44.27,4.38037h.01q4.29016.68994,8.57007,1.46c12.79993,2.27,25.49,5.00976,38.1,8.06982,10.17,2.46,20.29993,5.12988,30.4,7.91992,18.53,5.12989,36.97,10.68018,55.40991,16.18018a2.05509,2.05509,0,0,1,.23.06982c1.47.43018,2.94006.87012,4.41,1.31006.55993.16992,1.13.33008,1.70007.5q1.92.56984,3.84,1.14014c33.68006,9.96,67.47,19.45019,102.08,25.54C1705.61,523.56006,1814.42993,515.98,1920,500.60986Z" fill="#fde4df" opacity="0.8"/></g></g><path d="M1777.96,0c-24.51,22.62988-50.61,44.08984-77.71,64.56982-20.35,15.37012-41.25,30.18995-62.46,44.53028-79.78,53.89013-164.02,101-239.54,145.27q-11.445,6.72-22.61,13.33984-30.07488,17.86524-60.16,35.81006c-.31006.18018-.62.35986-.92993.5498-.02.01026-.05005.03028-.08008.0503-.36.21-.73.42968-1.1.6499-3.63,2.16992-7.27,4.33008-10.91,6.50977q-21.06006,12.55517-42.1499,25.13037-6.12012,3.65991-12.24,7.2998-64.71021,38.625-129.57007,77.1499-59.17492,35.09986-118.56,69.88037Q989.2,497.02516,978.43,503.29q-29.25,17.05518-58.56,33.96Q857.83,573.00976,795.39,608H0V0H1084.64c-2.30993-1.46-4.59-2.9502-6.85-4.4502Q1083.4751-2.365,1088.90991,0H1442.76a.21105.21105,0,0,1,.03-.0498c.17993.00976.36.02978.53.0498Z" fill="#fff1d1"/><g opacity="0.8"><g opacity="0.8"><path d="M1442.76,0c-16.52,24.64014-34.63,49.8999-54.13,72.56982-34.4,40.03028-73.08,71.97022-114.73,78.14014-62.39,9.23-99.05993-44.77978-150.22009-65.68017C1076.74,65.85986,1022.13,64.81982,969.31,66.87012c-19.05.73974-37.86,1.88965-56,2.73-38.22,1.77-75.57,5.15967-112.3,9.96972q-22.065,2.88061-43.84,6.43995c-59.82,9.73046-118.23,23.08007-176.31,39.17041q-5.085,1.40991-10.17,2.83984c-.03.00977-.07.02-.1.02978-3.27.91993-6.54,1.86036-9.8,2.8003-55.02,15.83008-109.85,34.00976-165.46,53.77978C261.64,232.16992,131.95,282.73,0,317.58008V0H1084.64c-2.30993-1.46-4.59-2.9502-6.85-4.4502Q1083.4751-2.365,1088.90991,0Z" fill="#ffd163" opacity="0.8"/><path d="M758.2,0q-40.14,5.81982-79.91,13.83008Q632.33,23.085,587.06,35.25a5.42924,5.42924,0,0,0-.54.1499c-.74.18994-1.47.39014-2.2.59033q-18.66,5.05445-37.17,10.60987C361.03,102.50977,187.5,195.85986,0,246.06982V0Z" fill="#ffe3a0" opacity="0.8"/><path d="M1088.90991,0H1369.99c-31.15991,32.46973-65.59,57.37988-102.88,64.37988a112.18755,112.18755,0,0,1-43.01-.18994c-26-5.16992-47.28992-15.33984-67.42-26.73974C1134.29,24.77,1113.34009,10.56006,1088.90991,0Z" fill="#ffe3a0" opacity="0.8"/><path d="M0,0H59.03Q29.66,11.2046,0,21.54Z" fill="#ffecbd" opacity="0.8"/></g></g><path d="M1508.82007,608h-19.23q-.9452,3.21021-1.96009,6.41992.885-3.21019,1.70008-6.41992H1170.04c-21.3501,5.3999-43.16,6.33008-64.07007,0H977.49a177.58824,177.58824,0,0,1-3.94-26.24023c-.03-.29-.05-.57959-.07-.86963a254.70692,254.70692,0,0,1-.43-29.34034,366.71411,366.71411,0,0,1,3.63-37.75c.18-1.25976.37-2.50976.58-3.75q.54-3.405,1.17-6.75976.555-3.06006,1.19-6.08008a250.00413,250.00413,0,0,1,62.69006-120.81006c45.29993-48.1499,108.78-77.48974,177.16992-82.27q7.57507-.53979,15.22-.66015h.31006c1.13-.01953,2.25-.02979,3.38-.02979,3.49-.02,7,.04,10.5.1499q.735.01539,1.47.06006a290.58149,290.58149,0,0,1,41.91,4.68018c.77.13965,1.53.27978,2.29.43994a171.01358,171.01358,0,0,1,18.35986,4.83984c.51.16016,1.03.33008,1.55005.51026,5.18,1.6997,10.42,3.66992,15.68,5.88965,27.87,11.73046,56.59,30.27,82.95,53.26025a365.58641,365.58641,0,0,1,64.29,72.8999c1.21,1.83985,2.41,3.68018,3.58,5.54,3.88,6.14014,7.53,12.37012,10.89,18.66992.61,1.12989,1.20007,2.25,1.78,3.37989q4.18488,8.07055,7.75,16.28027C1519.88,522.66016,1525.2,567.41016,1508.82007,608Z" fill="#e9eefc"/><g opacity="0.8"><g opacity="0.8"><path d="M1497.49,516.81006c-.09,1.25-.19995,2.50976-.32007,3.77-1.94995,20.27-7.88989,43.3501-15.76,66.46972-2.37988,7.01026-4.93994,14.02-7.61987,20.9502H1170.04c-21.3501,5.3999-43.16,6.33008-64.07007,0H981.61c-1.58-6.39014-2.88-12.83984-3.87-19.27q-.63-4.02027-1.08-8.02978c-.04-.29-.06994-.58008-.1-.86036a189.26855,189.26855,0,0,1-1.22-23.38964v-.01026c.06-5.02.34-9.91015.85-14.62012,1.58-14.73,5.39-27.65966,11.61-37.12988,9.97-15.16992,26.14-21.48,49.31-12.14014q3.045,1.23048,6.25,2.82032c19.43005,9.66992,17.71008,65.50976,58.6,85.87988.54.27,1.09009.52979,1.64.79a67.39456,67.39456,0,0,0,12.1,4.21,108.51312,108.51312,0,0,0,17.32007,2.8501,144.52774,144.52774,0,0,0,18.68994.23c.84009-.04,1.69006-.08008,2.55005-.12988,37.89-2.12012,98.6-39.79,120.93994-64.98047A137.83606,137.83606,0,0,0,1293.75,498.2002,90.02279,90.02279,0,0,0,1302.7,474.33984a81.19225,81.19225,0,0,0-.43994-35.77C1294.82007,406,1270.08008,375.56006,1248.07007,343.71,1237,327.68994,1226.61,311.31006,1219.48,294.12988a1.08893,1.08893,0,0,1-.07007-.16015q7.56006-.47975,15.29-.5h.31006c1.14,0,2.27.01025,3.40991.03027A283.67617,283.67617,0,0,1,1293.5,299.8501q9.96,2.11451,19.87,4.91992,8.43,2.38476,16.78,5.23975a312.76392,312.76392,0,0,1,66.82,32.06q4.695,3,9.25,6.16016c6.93,4.81982,13.61011,9.91992,19.98,15.29981A236.14511,236.14511,0,0,1,1454.59009,391.79,194.68758,194.68758,0,0,1,1481.38,432.75977c.1.21.21009.43017.30994.64013a168.22217,168.22217,0,0,1,10.17,26.98,156.6278,156.6278,0,0,1,3.99,18.02A163.3869,163.3869,0,0,1,1497.49,516.81006Z" fill="#7695ef" opacity="0.8"/><path d="M1105.97,608H975.61a131.10347,131.10347,0,0,1-4.95-25.2002c-.03-.29-.05-.56982-.06994-.8496a85.8924,85.8924,0,0,1,2.46-30.4004c.16-.58007.33-1.1499.51-1.71972q1.32-4.24512,2.63-8.01026c27.26-78.48,51.57-7.96,80.68,31.73a4.84157,4.84157,0,0,0,.28991.39014c4.76,6.47022,9.67017,12.1001,14.74011,16.08985A102.89813,102.89813,0,0,0,1105.97,608Z" fill="#abbef5" opacity="0.8"/><path d="M1492.14,540.8501a367.24574,367.24574,0,0,1-10.7301,46.1997C1479.33008,594.04,1477.06006,601.04,1474.64,608h-304.6c5.41992-1.35986,10.80994-3.02,16.13989-4.91992,20.56006-7.30029,40.3501-18.18018,58.13013-30.01026.04993-.02978.09985-.06982.1499-.10009,48.98-32.63965,69.68005-62.82959,73.84009-92.46973a85.7823,85.7823,0,0,0,.6499-17.08008,108.09013,108.09013,0,0,0-4.5-24.41015c-9.74-32.90967-33.19995-66.23-54.13989-102.59961A405.10572,405.10572,0,0,1,1238.41992,293.5l-.02991-.06006c-.01-.02-.02-.0498-.03-.06982q5.265,0,10.53.21972.735.01539,1.47.06006a281.17273,281.17273,0,0,1,42.29992,5.16016q10.21509,2.03979,20.26,4.7998c.54.14991,1.09009.3003,1.63013.46a285.96884,285.96884,0,0,1,82.41992,38q4.86,3.28492,9.55,6.76026A240.92674,240.92674,0,0,1,1451.15991,391.5,202.08089,202.08089,0,0,1,1480.97,441.71a182.23487,182.23487,0,0,1,10.47,35.37988c.24,1.26026.47,2.53028.67,3.8003A185.196,185.196,0,0,1,1492.14,540.8501Z" fill="#abbef5" opacity="0.8"/><path d="M1019,572.39014c3.74,10.46,6.38,23.06006,13.12,35.60986H984.14a187.05437,187.05437,0,0,1-6.4-19.27c-.71-2.68018-1.33-5.27978-1.83-7.79-.06994-.27978-.12-.56006-.17-.83008-1.88-9.60986-2.14-17.83007-.4-23.65966v-.01026c1.93-6.41015,6.31-9.91015,13.67-9.12988,18.59,1.96973,25.14,11.64014,29.85,24.71C1018.90991,572.14014,1018.96,572.25977,1019,572.39014Z" fill="#c5d2f8" opacity="0.8"/><path d="M1489.33008,608H1303.16992a219.84885,219.84885,0,0,0,37.41016-42.68018A181.0809,181.0809,0,0,0,1360.87,524.46a161.73811,161.73811,0,0,0,6.95007-76.12988c-.16016-1.16016-.33008-2.32031-.52-3.48-.18005-1.14014-.37012-2.29-.59009-3.43018-8.3-46.31982-33.98-90.56982-64.25-130.14013q-4.42493-5.78981-8.96-11.42969c-.28-.3501-.56006-.68994-.84009-1.04q-.19482-.24024-.38989-.48c.77.13965,1.53.27978,2.29.43994q10.73987,2.03979,20.91992,4.75c37.17993,9.7998,68.88,25.77978,94.92993,46.33984.06006.0503.13013.1001.19007.14991q8.17511,6.46507,15.6,13.52A226.29276,226.29276,0,0,1,1477.39,436.16992,238.90109,238.90109,0,0,1,1491.21,477.02q.46509,1.91967.9,3.87012a254.10328,254.10328,0,0,1,5.38,35.91992A282.27334,282.27334,0,0,1,1489.33008,608Z" fill="#c5d2f8" opacity="0.8"/><path d="M1489.59009,608q-.9452,3.21021-1.96009,6.41992.885-3.21019,1.70008-6.41992H1396.65q1.5-2.23535,2.93006-4.50977a227.43066,227.43066,0,0,0,17.71-33.96044,233.78794,233.78794,0,0,0,8.40991-23.46,253.60889,253.60889,0,0,0,10.1001-85.23A285.23868,285.23868,0,0,0,1413.1,363.27q-3.07489-7.27515-6.58-14.43994l-.3-.6001q-.56982-1.18506-1.16992-2.37012c1.81995,1.32032,3.6,2.66016,5.35986,4,.06006.0503.13013.1001.19007.14991A266.79615,266.79615,0,0,1,1454.59009,391.79,212.29479,212.29479,0,0,1,1481.38,432.75977c.1.21.21009.43017.30994.64013A197.33559,197.33559,0,0,1,1493.64,463.75977q2.265,7.51537,3.91,15.14013C1506.58008,520.29,1502.59009,564.00977,1489.59009,608Z" fill="#e1e8fc" opacity="0.8"/></g></g><rect width="1920" height="608" fill="none"/><path d="M1474.31472,488.21076h-13.1406a1.0213,1.0213,0,0,1-.88433-1.53195l6.57063-11.38058a1.02092,1.02092,0,0,1,.88433-.51065h0a1.0209,1.0209,0,0,1,.88433.51065l6.57,11.38058a1.0213,1.0213,0,0,1-.88433,1.53195Zm-11.37194-2.0426h9.60328l-4.80131-8.31668Z" fill="#557beb"/><path d="M1474.31472,434.10845h-13.1406a1.0213,1.0213,0,0,1-.88433-1.53195l6.57063-11.37991a1.02092,1.02092,0,0,1,.88433-.51065h0a1.0209,1.0209,0,0,1,.88433.51065l6.57,11.37991a1.0213,1.0213,0,0,1-.88433,1.53195Zm-11.37127-2.0426h9.60261l-4.80131-8.316Z" fill="#557beb"/><path d="M1529.01744,488.21076h-13.14059a1.0213,1.0213,0,0,1-.88433-1.53195l6.57063-11.38058a1.0209,1.0209,0,0,1,.88433-.51065h0a1.02092,1.02092,0,0,1,.88433.51065l6.57,11.38058a1.0213,1.0213,0,0,1-.88433,1.53195Zm-11.37194-2.0426h9.60328l-4.8013-8.31668Z" fill="#557beb"/><path d="M1501.98357,488.21076h-13.14126a1.0213,1.0213,0,0,1-.88433-1.53195l6.57064-11.38058a1.021,1.021,0,0,1,1.76865,0l6.57063,11.38058a1.0213,1.0213,0,0,1-.88433,1.53195Zm-11.3726-2.0426h9.60395l-4.802-8.31668Z" fill="#557beb"/><path d="M1474.31472,460.35906h-13.1406a1.0213,1.0213,0,0,1-.88433-1.53195l6.57063-11.38058a1.02092,1.02092,0,0,1,.88433-.51065h0a1.0209,1.0209,0,0,1,.88433.51065l6.57,11.38058a1.0213,1.0213,0,0,1-.88433,1.53195Zm-11.37194-2.0426h9.60328l-4.80131-8.31668Z" fill="#557beb"/><path d="M1446.64653,460.35906h-13.1406a1.0213,1.0213,0,0,1-.88433-1.53195l6.57-11.38058a1.02105,1.02105,0,0,1,1.76866,0l6.57063,11.38058a1.0213,1.0213,0,0,1-.88433,1.53195Zm-11.37194-2.0426h9.60328l-4.802-8.31668Z" fill="#557beb"/><path d="M1501.98357,460.35906h-13.14126a1.0213,1.0213,0,0,1-.88433-1.53195l6.57064-11.38058a1.021,1.021,0,0,1,1.76865,0l6.57063,11.38058a1.0213,1.0213,0,0,1-.88433,1.53195Zm-11.3726-2.0426h9.60395l-4.802-8.31668Z" fill="#557beb"/><path d="M1474.31472,516.06247h-13.1406a1.0213,1.0213,0,0,1-.88433-1.53195l6.57063-11.38058a1.02092,1.02092,0,0,1,.88433-.51065h0a1.0209,1.0209,0,0,1,.88433.51065l6.57,11.38058a1.0213,1.0213,0,0,1-.88433,1.53195Zm-11.37194-2.0426h9.60328l-4.80131-8.31668Z" fill="#557beb"/><path d="M1501.98357,546.64629h-13.14126a1.0213,1.0213,0,0,1-.88433-1.532l6.57064-11.38058a1.021,1.021,0,0,1,1.76865,0l6.57063,11.38058a1.0213,1.0213,0,0,1-.88433,1.532Zm-11.3726-2.0426h9.60395l-4.802-8.31668Z" fill="#557beb"/><path d="M1556.052,546.64629h-13.14126a1.0213,1.0213,0,0,1-.88432-1.532l6.57063-11.38058a1.021,1.021,0,0,1,1.76865,0l6.57063,11.38058a1.0213,1.0213,0,0,1-.88433,1.532Zm-11.3726-2.0426h9.60395l-4.802-8.31668Z" fill="#557beb"/><path d="M1529.01744,546.64629h-13.14059a1.0213,1.0213,0,0,1-.88433-1.532l6.57063-11.38058a1.02088,1.02088,0,0,1,.88433-.51065h0a1.0209,1.0209,0,0,1,.88433.51065l6.57,11.38058a1.0213,1.0213,0,0,1-.88433,1.532Zm-11.37194-2.0426h9.60328l-4.8013-8.31668Z" fill="#557beb"/><path d="M1529.01744,577.2301h-13.14059a1.0213,1.0213,0,0,1-.88433-1.53195l6.57063-11.38058a1.0209,1.0209,0,0,1,.88433-.51065h0a1.02092,1.02092,0,0,1,.88433.51065l6.57,11.38058a1.0213,1.0213,0,0,1-.88433,1.53195Zm-11.37194-2.0426h9.60328l-4.8013-8.31668Z" fill="#557beb"/><path d="M1446.64653,516.06247h-13.1406a1.0213,1.0213,0,0,1-.88433-1.53195l6.57-11.38058a1.02105,1.02105,0,0,1,1.76866,0l6.57063,11.38058a1.0213,1.0213,0,0,1-.88433,1.53195Zm-11.37194-2.0426h9.60328l-4.802-8.31668Z" fill="#557beb"/><path d="M1501.98357,516.06247h-13.14126a1.0213,1.0213,0,0,1-.88433-1.53195l6.57064-11.38058a1.021,1.021,0,0,1,1.76865,0l6.57063,11.38058a1.0213,1.0213,0,0,1-.88433,1.53195Zm-11.3726-2.0426h9.60395l-4.802-8.31668Z" fill="#557beb"/><path d="M1529.01744,516.06247h-13.14059a1.0213,1.0213,0,0,1-.88433-1.53195l6.57063-11.38058a1.0209,1.0209,0,0,1,.88433-.51065h0a1.02092,1.02092,0,0,1,.88433.51065l6.57,11.38058a1.0213,1.0213,0,0,1-.88433,1.53195Zm-11.37194-2.0426h9.60328l-4.8013-8.31668Z" fill="#557beb"/><path d="M1040.41751,254.66162h-13.51334a1.05027,1.05027,0,0,1-.90941-1.5754l6.75667-11.7034a1.05,1.05,0,0,1,1.81882,0l6.75667,11.7034a1.05027,1.05027,0,0,1-.90941,1.5754Zm-11.69417-2.10054h9.875l-4.9375-8.55259Z" fill="#ffc63d"/><path d="M1040.41751,199.02468h-13.51334a1.05027,1.05027,0,0,1-.90941-1.5754l6.75667-11.70271a1.05,1.05,0,0,1,1.81882,0l6.75667,11.70271a1.05027,1.05027,0,0,1-.90941,1.5754Zm-11.69417-2.10054h9.875l-4.9375-8.5519Z" fill="#ffc63d"/><path d="M1096.67189,254.66162h-13.51368a1.05027,1.05027,0,0,1-.90941-1.5754l6.757-11.7034a1.05027,1.05027,0,0,1,.90941-.52513h0a1.04988,1.04988,0,0,1,.90942.52513l6.75666,11.7034a1.05027,1.05027,0,0,1-.90941,1.5754Zm-11.69451-2.10054h9.87534l-4.9375-8.55259Z" fill="#ffc63d"/><path d="M1068.87086,254.66162h-13.51368a1.05027,1.05027,0,0,1-.90941-1.5754l6.757-11.7034a1.05026,1.05026,0,0,1,.90941-.52513h0a1.04985,1.04985,0,0,1,.90941.52513l6.75667,11.7034a1.05027,1.05027,0,0,1-.90941,1.5754Zm-11.69451-2.10054h9.87534l-4.9375-8.55259Z" fill="#ffc63d"/><path d="M1040.41751,226.01989h-13.51334a1.05027,1.05027,0,0,1-.90941-1.5754l6.75667-11.7034a1.05,1.05,0,0,1,1.81882,0l6.75667,11.7034a1.05027,1.05027,0,0,1-.90941,1.5754Zm-11.69417-2.10054h9.875l-4.9375-8.55258Z" fill="#ffc63d"/><path d="M1011.9645,226.01989H998.45083a1.05027,1.05027,0,0,1-.90942-1.5754l6.75667-11.7034a1.05,1.05,0,0,1,1.81882,0l6.757,11.7034a1.05027,1.05027,0,0,1-.90941,1.5754ZM1000.27,223.91935h9.87534l-4.93784-8.55258Z" fill="#ffc63d"/><path d="M1068.87086,226.01989h-13.51368a1.05027,1.05027,0,0,1-.90941-1.5754l6.757-11.7034a1.05026,1.05026,0,0,1,.90941-.52513h0a1.04985,1.04985,0,0,1,.90941.52513l6.75667,11.7034a1.05027,1.05027,0,0,1-.90941,1.5754Zm-11.69451-2.10054h9.87534l-4.9375-8.55258Z" fill="#ffc63d"/><path d="M1040.41751,283.30335h-13.51334a1.05028,1.05028,0,0,1-.90941-1.57541l6.75667-11.70339a1.05,1.05,0,0,1,1.81882,0l6.75667,11.70339a1.05028,1.05028,0,0,1-.90941,1.57541Zm-11.69417-2.10054h9.875l-4.9375-8.55259Z" fill="#ffc63d"/><path d="M1068.87086,314.75468h-13.51368a1.05027,1.05027,0,0,1-.90941-1.5754l6.757-11.7034a1.05026,1.05026,0,0,1,.90941-.52513h0a1.04985,1.04985,0,0,1,.90941.52513l6.75667,11.7034a1.05027,1.05027,0,0,1-.90941,1.5754Zm-11.69451-2.10054h9.87534l-4.9375-8.55258Z" fill="#ffc63d"/><path d="M1124.47292,314.75468h-13.51367a1.05027,1.05027,0,0,1-.90942-1.5754l6.75667-11.7034a1.05,1.05,0,0,1,1.81883,0l6.757,11.7034a1.05027,1.05027,0,0,1-.90941,1.5754Zm-11.6945-2.10054h9.87533l-4.93784-8.55258Z" fill="#ffc63d"/><path d="M1096.67189,314.75468h-13.51368a1.05027,1.05027,0,0,1-.90941-1.5754l6.757-11.7034a1.05027,1.05027,0,0,1,.90941-.52513h0a1.04988,1.04988,0,0,1,.90942.52513l6.75666,11.7034a1.05027,1.05027,0,0,1-.90941,1.5754Zm-11.69451-2.10054h9.87534l-4.9375-8.55258Z" fill="#ffc63d"/><path d="M1096.67189,346.206h-13.51368a1.05028,1.05028,0,0,1-.90941-1.57541l6.757-11.70339a1.05028,1.05028,0,0,1,.90941-.52514h0a1.04989,1.04989,0,0,1,.90942.52514l6.75666,11.70339a1.05028,1.05028,0,0,1-.90941,1.57541Zm-11.69451-2.10054h9.87534l-4.9375-8.55259Z" fill="#ffc63d"/><path d="M1011.9645,283.30335H998.45083a1.05028,1.05028,0,0,1-.90942-1.57541l6.75667-11.70339a1.05,1.05,0,0,1,1.81882,0l6.757,11.70339a1.05028,1.05028,0,0,1-.90941,1.57541ZM1000.27,281.20281h9.87534l-4.93784-8.55259Z" fill="#ffc63d"/><path d="M1068.87086,283.30335h-13.51368a1.05028,1.05028,0,0,1-.90941-1.57541l6.757-11.70339a1.05027,1.05027,0,0,1,.90941-.52514h0a1.04986,1.04986,0,0,1,.90941.52514l6.75667,11.70339a1.05028,1.05028,0,0,1-.90941,1.57541Zm-11.69451-2.10054h9.87534l-4.9375-8.55259Z" fill="#ffc63d"/><path d="M1096.67189,283.30335h-13.51368a1.05028,1.05028,0,0,1-.90941-1.57541l6.757-11.70339a1.05028,1.05028,0,0,1,.90941-.52514h0a1.04989,1.04989,0,0,1,.90942.52514l6.75666,11.70339a1.05028,1.05028,0,0,1-.90941,1.57541Zm-11.69451-2.10054h9.87534l-4.9375-8.55259Z" fill="#ffc63d"/></svg>